<?xml version="1.0" encoding="utf-8"?>
<!-- Generator: Adobe Illustrator 26.0.0, SVG Export Plug-In . SVG Version: 6.00 Build 0)  -->
<svg version="1.1" xmlns="http://www.w3.org/2000/svg" xmlns:xlink="http://www.w3.org/1999/xlink" x="0px" y="0px"
	 viewBox="0 0 708.66 708.66" style="enable-background:new 0 0 708.66 708.66;" xml:space="preserve">
<style type="text/css">
	.st0{display:none;}
	.st1{display:inline;fill:#FFFFFF;}
	.st2{fill:#404258;}
	.st3{fill:none;}
</style>
<g id="Layer_2" class="st0">
	<rect x="-1.84" y="-1.53" class="st1" width="708.66" height="708.66"/>
</g>
<g id="Layer_1">
	<g>
		<g>
			<path class="st2" d="M303.15,517.43c-2.42,0-4.84-0.84-6.8-2.57c-35.04-30.75-56.81-90.27-56.81-155.33
				c0-69.03,24.85-132.06,63.32-160.59c4.58-3.4,11.04-2.44,14.44,2.14c3.39,4.58,2.44,11.04-2.14,14.44
				c-33.4,24.77-54.98,81.3-54.98,144.01c0,59.29,19.08,112.86,49.78,139.81c4.28,3.76,4.71,10.28,0.95,14.56
				C308.87,516.24,306.01,517.43,303.15,517.43z"/>
		</g>
		<g>
			<path class="st2" d="M395.37,517.43c-2.87,0-5.72-1.19-7.76-3.51c-3.76-4.28-3.34-10.8,0.95-14.56
				c30.71-26.95,49.78-80.52,49.78-139.81c0-62.71-21.58-119.24-54.98-144.01c-4.58-3.4-5.54-9.86-2.14-14.44
				c3.4-4.58,9.86-5.53,14.44-2.14c38.47,28.53,63.32,91.57,63.32,160.59c0,65.05-21.77,124.57-56.81,155.33
				C400.21,516.58,397.78,517.43,395.37,517.43z"/>
		</g>
		<g>
			<path class="st3" d="M390.34,208.09c34.24,26.25,58.02,84.19,58.02,151.45c0,91.93-44.44,166.45-99.25,166.45
				c-16.58,0-32.22-6.82-45.96-18.88"/>
		</g>
		<g>
			<path class="st3" d="M309,207.24c12.26-9.1,25.83-14.15,40.11-14.15c14.71,0,28.67,5.37,41.23,15"/>
		</g>
		<g>
			<path class="st2" d="M457.69,446.78c-19.62,0-43.2-3.52-69.66-10.71c-4.12-1.12-6.56-5.37-5.44-9.5c1.12-4.12,5.4-6.57,9.5-5.44
				c67.01,18.19,104.06,9.6,110.14-6.08c3.79-9.79-8.02-27.25-30.84-45.58c-26.1-20.97-63.79-41.57-106.13-57.99
				c-88.13-34.19-162.95-36.6-170.98-15.91c-3.79,9.78,8.02,27.24,30.84,45.58c26.1,20.97,63.8,41.57,106.13,57.99
				c0.33,0.13,0.63,0.26,0.93,0.39c0.01,0,0.02,0.01,0.03,0.01l0,0c7.01,3.25,5.28,8.96,4.84,10.11c-0.46,1.2-3.16,7.03-11.25,4.03
				c-0.34-0.13-0.65-0.26-0.95-0.39l-0.03-0.01l0-0.01c-0.14-0.06-0.28-0.13-0.41-0.19c-43.27-16.91-81.93-38.14-108.97-59.87
				c-29.98-24.09-42.28-45.96-35.58-63.25c14.68-37.84,109.38-24.59,191.01,7.08c43.78,16.98,82.92,38.42,110.23,60.36
				c29.98,24.09,42.29,45.96,35.58,63.25C509.98,437.89,488.83,446.78,457.69,446.78z"/>
		</g>
		<g>
			<path class="st2" d="M363.16,453.8c-19.77,0-35.85-16.08-35.85-35.85c0-19.76,16.08-35.85,35.85-35.85
				c19.77,0,35.85,16.08,35.85,35.85C399.01,437.72,382.93,453.8,363.16,453.8z M363.16,397.59c-11.23,0-20.37,9.14-20.37,20.36
				c0,11.23,9.14,20.37,20.37,20.37c11.23,0,20.37-9.14,20.37-20.37C383.53,406.72,374.39,397.59,363.16,397.59z"/>
		</g>
	</g>
</g>
</svg>
