<?xml version="1.0" encoding="UTF-8"?>
<svg width="64mm" height="64mm" version="1.1" viewBox="0 0 64 64" xmlns="http://www.w3.org/2000/svg" xmlns:cc="http://creativecommons.org/ns#" xmlns:dc="http://purl.org/dc/elements/1.1/" xmlns:rdf="http://www.w3.org/1999/02/22-rdf-syntax-ns#">
 <metadata>
  <rdf:RDF>
   <cc:Work rdf:about="">
    <dc:format>image/svg+xml</dc:format>
    <dc:type rdf:resource="http://purl.org/dc/dcmitype/StillImage"/>
    <dc:title/>
   </cc:Work>
  </rdf:RDF>
 </metadata>
 <g>
  <path d="m55.764 8.2343c-15.726-7.7823-31.563-8.0606-47.53 0-7.9021 15.724-7.9414 31.56 0 47.531 15.839 7.7601 31.656 8.0835 47.53 0 7.8821-15.568 7.962-31.371 0-47.531z" stroke="#000" stroke-linecap="round" stroke-linejoin="round" stroke-width=".59507"/>
  <text transform="scale(.86452 1.1567)" x="33.828949" y="29.333574" fill="#000000" font-family="sans-serif" font-size="3.347px" stroke-width=".083672" style="line-height:1.25" xml:space="preserve"><tspan x="33.828949" y="29.333574" fill="#ffffff" stroke-width=".083672">dev</tspan></text>
  <ellipse transform="rotate(90)" cx="32.475" cy="-32.046" rx="24.545" ry="24.545" style="paint-order:stroke fill markers"/>
  <circle transform="rotate(90)" cx="48.389" cy="-51.134" r="4.9091" fill="#fff" style="paint-order:stroke fill markers"/>
  <path d="m21.117 55.53c-4.2177-2.1324-7.8304-5.4459-10.319-9.464-2.4882-4.0181-3.8445-8.7289-3.8739-13.455-0.029392-4.726 1.2682-9.4533 3.7063-13.502 2.438-4.0487 6.0093-7.4069 10.2-9.5916 0.18957-0.098824 0.38037-0.1953 0.57233-0.28939" fill="none" stroke="#fff" stroke-linecap="round" stroke-width="3.5811"/>
  <path d="m42.57 55.53c4.2177-2.1324 7.8305-5.4459 10.319-9.464 2.4882-4.0181 3.8445-8.7289 3.8739-13.455 0.02939-4.7261-1.2682-9.4533-3.7063-13.502-2.438-4.0487-6.0093-7.4069-10.2-9.5916-0.18957-0.098824-0.38037-0.1953-0.57233-0.28939" fill="none" stroke="#fff" stroke-linecap="round" stroke-width="3.5811"/>
  <circle transform="rotate(90)" cx="32.475" cy="-32.046" r="4.9091" fill="#fff" style="paint-order:stroke fill markers"/>
  <circle transform="rotate(90)" cx="48.482" cy="-51.138" r="2.4545" style="paint-order:stroke fill markers"/>
 </g>
</svg>
