<?xml version="1.0" encoding="UTF-8" standalone="no"?>
<svg
   xmlns:dc="http://purl.org/dc/elements/1.1/"
   xmlns:cc="http://creativecommons.org/ns#"
   xmlns:rdf="http://www.w3.org/1999/02/22-rdf-syntax-ns#"
   xmlns:svg="http://www.w3.org/2000/svg"
   xmlns="http://www.w3.org/2000/svg"
   width="128mm"
   height="128mm"
   viewBox="0 0 128 128"
   version="1.1"
   id="svg1447">
  <defs
     id="defs1441" />
  <metadata
     id="metadata1444">
    <rdf:RDF>
      <cc:Work
         rdf:about="">
        <dc:format>image/svg+xml</dc:format>
        <dc:type
           rdf:resource="http://purl.org/dc/dcmitype/StillImage" />
        <dc:title></dc:title>
      </cc:Work>
    </rdf:RDF>
  </metadata>
  <g
     id="layer5"
     style="display:inline" />
  <g
     id="layer8"
     style="display:inline" />
  <g
     id="layer7"
     style="display:inline" />
  <g
     id="layer6"
     style="display:inline">
    <path
       style="display:inline;fill:#000000;stroke:#000000;stroke-width:1.22982;stroke-linecap:round;stroke-linejoin:round;stroke-miterlimit:4;stroke-dasharray:none;stroke-opacity:1"
       d="m 113.11565,14.884167 c -32.501059,-16.0834788 -65.231187,-16.6585903 -98.231659,0 -16.3313639,32.495411 -16.412689,65.224978 0,98.230933 32.734837,16.03746 65.423688,16.70584 98.231659,0 16.28999,-32.174332 16.4552,-64.83338 0,-98.230933 z"
       id="path2114-8-5" />
    <text
       xml:space="preserve"
       style="font-style:normal;font-weight:normal;font-size:6.91711px;line-height:1.25;font-family:sans-serif;display:inline;fill:#000000;fill-opacity:1;stroke:none;stroke-width:0.172924"
       x="67.446266"
       y="58.779148"
       id="text920-1-4"
       transform="scale(0.86452653,1.1567025)"><tspan
         id="tspan918-0-9"
         x="67.446266"
         y="58.779148"
         style="fill:#ffffff;stroke-width:0.172924">dev</tspan></text>
    <ellipse
       style="display:inline;fill:#000000;stroke:none;stroke-width:0.459339;stroke-linecap:round;stroke-opacity:1;paint-order:stroke fill markers"
       id="path835-2-4-7-2-8-8"
       cx="64.982597"
       cy="-64.095779"
       rx="50.727261"
       ry="50.728508"
       transform="rotate(90)" />
    <ellipse
       style="display:inline;fill:#ffffff;stroke:none;stroke-width:0.0918684;stroke-linecap:round;paint-order:stroke fill markers"
       id="path835-2-4-6-1-03-9-2"
       cx="97.870102"
       cy="-103.54552"
       transform="rotate(90)"
       rx="10.145453"
       ry="10.145701" />
    <path
       style="display:inline;fill:none;stroke:#ffffff;stroke-width:7.40113;stroke-linecap:round;stroke-linejoin:miter;stroke-miterlimit:4;stroke-dasharray:none;stroke-opacity:1"
       d="m 41.509032,112.62861 c -8.716677,-4.40696 -16.183027,-11.25485 -21.325381,-19.558941 -5.142355,-8.30409 -7.945448,-18.03973 -8.006193,-27.806922 -0.06074,-9.767192 2.62104,-19.536943 7.65971,-27.904352 5.038669,-8.367409 12.419268,-15.307638 21.080456,-19.822674 0.391788,-0.204237 0.786108,-0.403616 1.18284,-0.598075"
       id="path2316-9" />
    <path
       style="display:inline;fill:none;stroke:#ffffff;stroke-width:7.40113;stroke-linecap:round;stroke-linejoin:miter;stroke-miterlimit:4;stroke-dasharray:none;stroke-opacity:1"
       d="m 85.84599,112.62861 c 8.716685,-4.40695 16.18304,-11.25484 21.32541,-19.55893 5.14236,-8.304092 7.94546,-18.039735 8.0062,-27.806931 0.0607,-9.767196 -2.62104,-19.536951 -7.65972,-27.904362 C 102.47921,28.990977 95.098599,22.05075 86.437403,17.535721 86.045614,17.331484 85.651293,17.132105 85.25456,16.937646"
       id="path2316-3-4" />
    <ellipse
       style="display:inline;fill:#ffffff;stroke:none;stroke-width:0.0918684;stroke-linecap:round;paint-order:stroke fill markers"
       id="path835-2-4-6-9-6-06-8-1"
       cx="64.982597"
       cy="-64.095779"
       transform="rotate(90)"
       rx="10.145453"
       ry="10.145701" />
    <ellipse
       style="display:inline;fill:#000000;stroke:none;stroke-width:0.0459342;stroke-linecap:round;paint-order:stroke fill markers"
       id="path835-2-4-6-3-1-72-5-2"
       cx="98.062599"
       cy="-103.55347"
       transform="rotate(90)"
       rx="5.0727267"
       ry="5.0728507" />
  </g>
  <g
     id="layer10" />
</svg>
