<?xml version="1.0" encoding="UTF-8"?>
<svg width="512mm" height="512mm" version="1.1" viewBox="0 0 512 512" xmlns="http://www.w3.org/2000/svg" xmlns:cc="http://creativecommons.org/ns#" xmlns:dc="http://purl.org/dc/elements/1.1/" xmlns:rdf="http://www.w3.org/1999/02/22-rdf-syntax-ns#">
 <metadata>
  <rdf:RDF>
   <cc:Work rdf:about="">
    <dc:format>image/svg+xml</dc:format>
    <dc:type rdf:resource="http://purl.org/dc/dcmitype/StillImage"/>
    <dc:title/>
   </cc:Work>
  </rdf:RDF>
 </metadata>
 <g>
  <g>
   <path d="m457.24 54.804c-133.15-65.89-267.24-68.246-402.43 0-66.906 133.13-67.239 267.21 0 402.43 134.11 65.702 268.03 68.44 402.43 0 66.736-131.81 67.413-265.61 0-402.43z" fill="#0f4c75" stroke="#0f4c75" stroke-linecap="round" stroke-linejoin="round" stroke-width="5.0383"/>
   <text transform="scale(.86453 1.1567)" x="269.172" y="235.46822" fill="#000000" font-family="sans-serif" font-size="28.338px" stroke-width=".70843" style="line-height:1.25" xml:space="preserve"><tspan x="269.172" y="235.46822" fill="#ffffff" stroke-width=".70843">dev</tspan></text>
   <ellipse transform="rotate(90)" cx="260.05" cy="-256.41" rx="207.82" ry="207.82" fill="#0f4c75" style="paint-order:stroke fill markers"/>
  </g>
  <ellipse transform="rotate(90)" cx="394.78" cy="-418.03" rx="41.564" ry="41.565" fill="#fff" style="paint-order:stroke fill markers"/>
  <path d="m163.88 455.24c-35.71-18.054-66.298-46.109-87.365-80.129-21.067-34.02-32.551-73.905-32.8-113.92-0.24886-40.014 10.738-80.038 31.38-114.32 20.642-34.279 50.879-62.712 86.362-81.209 1.6051-0.83672 3.2205-1.6535 4.8458-2.4502" fill="none" stroke="#fff" stroke-linecap="round" stroke-width="30.321"/>
  <path d="m345.52 455.24c35.71-18.054 66.298-46.109 87.365-80.129 21.067-34.02 32.551-73.905 32.8-113.92s-10.738-80.038-31.38-114.32c-20.642-34.279-50.879-62.712-86.362-81.209-1.6051-0.83672-3.2205-1.6535-4.8458-2.4502" fill="none" stroke="#fff" stroke-linecap="round" stroke-width="30.321"/>
  <ellipse transform="rotate(90)" cx="260.05" cy="-256.41" rx="41.564" ry="41.565" fill="#fff" style="paint-order:stroke fill markers"/>
  <ellipse transform="rotate(90)" cx="395.57" cy="-418.06" rx="20.782" ry="20.782" fill="#0f4c75" style="paint-order:stroke fill markers"/>
 </g>
</svg>
